<svg id="Capa_1" data-name="Capa 1" xmlns="http://www.w3.org/2000/svg" viewBox="0 0 93.45 95.05"><path d="M56.31,17.53c10.18,0,15.27,7.63,15.27,16.54.12,4.06,0,6.37,0,11.45H67.76S64.41,52.77,70.31,57c0,.26-21.76,7.18-26.72-14,0,.26,11.24,7.13,17.81,5.09,0,0,2.56-9.49.66-15.24-2.47-7.44-13.33-5.35-18.47-2.37C30.83,37.88,26.78,49.39,22,58.24c0,0,3.17-40.71,34.36-40.71" fill="#0068a3"/><path d="M66.89,77.68a5.1,5.1,0,0,1-3.38-1,4,4,0,0,1-1.3-3c0-.27,0-.71,0-1.32s0-1.08,0-1.36a4,4,0,0,1,1.32-3,5,5,0,0,1,3.36-1.06,6.31,6.31,0,0,1,2.41.44A3.89,3.89,0,0,1,71,68.53a3.32,3.32,0,0,1,.65,2,.29.29,0,0,1-.1.23.32.32,0,0,1-.23.09H69.15a.52.52,0,0,1-.31-.08.79.79,0,0,1-.17-.31,1.78,1.78,0,0,0-.64-1,2,2,0,0,0-1.14-.29c-1.13,0-1.72.63-1.76,1.9,0,.27,0,.69,0,1.25s0,1,0,1.28c0,1.26.63,1.9,1.76,1.9a2,2,0,0,0,1.14-.3,1.75,1.75,0,0,0,.64-1,.6.6,0,0,1,.17-.31.52.52,0,0,1,.31-.08h2.14a.32.32,0,0,1,.23.09.29.29,0,0,1,.1.23A3.26,3.26,0,0,1,71,76a3.83,3.83,0,0,1-1.67,1.27,6.31,6.31,0,0,1-2.41.44m-10.68,0a5.06,5.06,0,0,1-3.42-1.07,4,4,0,0,1-1.31-3c0-.28,0-.74,0-1.37s0-1.1,0-1.39a3.78,3.78,0,0,1,1.32-2.94,5.15,5.15,0,0,1,3.41-1,6.33,6.33,0,0,1,2.52.47,4,4,0,0,1,1.64,1.2A2.55,2.55,0,0,1,61,70a.35.35,0,0,1-.1.24.34.34,0,0,1-.23.1H58.3a.37.37,0,0,1-.23-.06.45.45,0,0,1-.16-.15,1.7,1.7,0,0,0-.58-.73,1.84,1.84,0,0,0-1.12-.3A1.63,1.63,0,0,0,54.4,70.9c0,.28,0,.71,0,1.29s0,1,0,1.31c0,1.28.65,1.92,1.84,1.92A2.06,2.06,0,0,0,57.62,75a1.62,1.62,0,0,0,.52-1.33v-.27H56.8a.36.36,0,0,1-.28-.11A.38.38,0,0,1,56.4,73V71.82a.36.36,0,0,1,.12-.28.36.36,0,0,1,.28-.11h3.82a.37.37,0,0,1,.28.11.36.36,0,0,1,.11.28v1.74a4.05,4.05,0,0,1-.59,2.21,3.85,3.85,0,0,1-1.68,1.42,6.2,6.2,0,0,1-2.53.49m-9.92-5.94a1.4,1.4,0,0,0,1-.32,1.24,1.24,0,0,0,.36-1,1.36,1.36,0,0,0-.33-.95,1.27,1.27,0,0,0-1-.36H44.6v2.59ZM42.1,77.52a.34.34,0,0,1-.26-.11.36.36,0,0,1-.11-.26V67.37a.36.36,0,0,1,.1-.27A.34.34,0,0,1,42.1,67h4.27a4.81,4.81,0,0,1,3.07.89,3.14,3.14,0,0,1,1.11,2.61A3,3,0,0,1,49.44,73a4.93,4.93,0,0,1-3.07.86H44.65v3.25a.33.33,0,0,1-.11.26.33.33,0,0,1-.27.11Zm-8.87,0a.38.38,0,0,1-.38-.37V67.36a.37.37,0,0,1,.11-.27.4.4,0,0,1,.27-.11h2.11a.37.37,0,0,1,.27.11.36.36,0,0,1,.1.27v7.8h4.52a.38.38,0,0,1,.39.39v1.6a.37.37,0,0,1-.11.27.4.4,0,0,1-.28.1Zm-6.71.16a5,5,0,0,1-3.35-1A3.9,3.9,0,0,1,22,73.52V67.37a.37.37,0,0,1,.11-.27.34.34,0,0,1,.27-.12h2.06a.36.36,0,0,1,.28.12.34.34,0,0,1,.12.27v6.12a2,2,0,0,0,.44,1.4,1.68,1.68,0,0,0,1.27.47,1.64,1.64,0,0,0,1.27-.48,1.94,1.94,0,0,0,.45-1.39V67.37a.37.37,0,0,1,.11-.27.38.38,0,0,1,.28-.12h2.05a.38.38,0,0,1,.28.12.37.37,0,0,1,.11.27v6.15a3.92,3.92,0,0,1-1.2,3.12,5,5,0,0,1-3.33,1" fill="#f59b09"/></svg>